<svg xmlns="http://www.w3.org/2000/svg" width="400" height="300" viewBox="0 0 400 300">
  <!-- 一体机底座 -->
  <rect x="150" y="220" width="100" height="20" rx="5" fill="#7f8c8d" />
  <rect x="190" y="200" width="20" height="20" rx="2" fill="#95a5a6" />
  
  <!-- 一体机屏幕 -->
  <rect x="100" y="60" width="200" height="140" rx="10" fill="#2c3e50" />
  <rect x="110" y="70" width="180" height="120" rx="5" fill="#16a085" />
  
  <!-- 摄像头 -->
  <circle cx="200" cy="65" r="3" fill="#ecf0f1" />
  
  <!-- 屏幕内容 - 图标 -->
  <rect x="130" y="90" width="20" height="20" rx="5" fill="#3498db" />
  <rect x="160" y="90" width="20" height="20" rx="5" fill="#e74c3c" />
  <rect x="190" y="90" width="20" height="20" rx="5" fill="#f1c40f" />
  <rect x="220" y="90" width="20" height="20" rx="5" fill="#2ecc71" />
  
  <!-- 窗口 -->
  <rect x="130" y="120" width="140" height="60" rx="5" fill="#ecf0f1" />
  <rect x="130" y="120" width="140" height="15" rx="5" fill="#34495e" />
  <circle cx="138" cy="127.5" r="3" fill="#e74c3c" />
  <circle cx="148" cy="127.5" r="3" fill="#f1c40f" />
  <circle cx="158" cy="127.5" r="3" fill="#2ecc71" />
  
  <!-- 产品信息 -->
  <text x="200" y="260" font-family="Arial" font-size="14" fill="black" text-anchor="middle">一体机电脑 3</text>
  <text x="200" y="280" font-family="Arial" font-size="10" fill="#7f8c8d" text-anchor="middle">高清屏幕 | 内置摄像头</text>
</svg> 